<svg width="47" height="47" viewBox="0 0 47 47" fill="none" xmlns="http://www.w3.org/2000/svg">
<path d="M40.4354 5.23697L25.7571 16.1387L28.4715 9.70684L40.4354 5.23697Z" fill="#E2761B" stroke="#E2761B" stroke-linecap="round" stroke-linejoin="round"/>
<path d="M6.54994 5.23697L21.1102 16.242L18.5286 9.70684L6.54994 5.23697ZM35.1541 30.5072L31.2449 36.4965L39.6093 38.7979L42.0138 30.64L35.1541 30.5072ZM5.00098 30.64L7.39081 38.7979L15.7552 36.4965L11.8459 30.5072L5.00098 30.64Z" fill="#E4761B" stroke="#E4761B" stroke-linecap="round" stroke-linejoin="round"/>
<path d="M15.2832 20.3873L12.9524 23.913L21.2578 24.2818L20.9628 15.3569L15.2832 20.3873ZM31.7022 20.3873L25.9489 15.2536L25.7572 24.2818L34.0478 23.913L31.7022 20.3873ZM15.7553 36.4965L20.7415 34.0625L16.4339 30.699L15.7553 36.4965ZM26.244 34.0625L31.2449 36.4965L30.5516 30.699L26.244 34.0625Z" fill="#E4761B" stroke="#E4761B" stroke-linecap="round" stroke-linejoin="round"/>
<path d="M31.2448 36.4965L26.2438 34.0625L26.6421 37.3227L26.5979 38.6946L31.2448 36.4965ZM15.7551 36.4965L20.402 38.6946L20.3725 37.3227L20.7413 34.0625L15.7551 36.4965Z" fill="#D7C1B3" stroke="#D7C1B3" stroke-linecap="round" stroke-linejoin="round"/>
<path d="M20.4757 28.5452L16.3157 27.3208L19.2513 25.9783L20.4757 28.5452ZM26.5093 28.5452L27.7338 25.9783L30.6842 27.3208L26.5093 28.5452Z" fill="#233447" stroke="#233447" stroke-linecap="round" stroke-linejoin="round"/>
<path d="M15.7552 36.4965L16.4633 30.5072L11.8459 30.64L15.7552 36.4965ZM30.5368 30.5072L31.2449 36.4965L35.1542 30.64L30.5368 30.5072ZM34.0478 23.9131L25.7571 24.2819L26.5242 28.5452L27.7486 25.9783L30.6991 27.3208L34.0478 23.9131ZM16.3158 27.3208L19.2662 25.9783L20.4759 28.5452L21.2577 24.2819L12.9524 23.9131L16.3158 27.3208Z" fill="#CD6116" stroke="#CD6116" stroke-linecap="round" stroke-linejoin="round"/>
<path d="M12.9524 23.9131L16.4339 30.699L16.3159 27.3208L12.9524 23.9131ZM30.6991 27.3208L30.5516 30.699L34.0478 23.9131L30.6991 27.3208ZM21.2578 24.2819L20.4759 28.5452L21.4496 33.5756L21.6708 26.952L21.2578 24.2819ZM25.7572 24.2819L25.3589 26.9372L25.5359 33.5756L26.5243 28.5452L25.7572 24.2819Z" fill="#E4751F" stroke="#E4751F" stroke-linecap="round" stroke-linejoin="round"/>
<path d="M26.5241 28.5452L25.5357 33.5756L26.2438 34.0625L30.5514 30.699L30.6989 27.3208L26.5241 28.5452ZM16.3157 27.3208L16.4337 30.699L20.7413 34.0625L21.4494 33.5756L20.4758 28.5452L16.3157 27.3208Z" fill="#F6851B" stroke="#F6851B" stroke-linecap="round" stroke-linejoin="round"/>
<path d="M26.5979 38.6946L26.6421 37.3227L26.2733 36.9981H20.7118L20.3725 37.3227L20.402 38.6946L15.7551 36.4966L17.3779 37.8242L20.6676 40.1108H26.3176L29.622 37.8242L31.2448 36.4966L26.5979 38.6946Z" fill="#C0AD9E" stroke="#C0AD9E" stroke-linecap="round" stroke-linejoin="round"/>
<path d="M26.2439 34.0625L25.5358 33.5757H21.4495L20.7414 34.0625L20.3726 37.3227L20.7119 36.9981H26.2734L26.6422 37.3227L26.2439 34.0625Z" fill="#161616" stroke="#161616" stroke-linecap="round" stroke-linejoin="round"/>
<path d="M41.0549 16.8468L42.3089 10.828L40.4354 5.23697L26.2439 15.7699L31.7021 20.3873L39.4175 22.6444L41.1287 20.6529L40.3911 20.1218L41.5713 19.0449L40.6566 18.3368L41.8368 17.4369L41.0549 16.8468ZM4.69116 10.828L5.94509 16.8468L5.14848 17.4369L6.32864 18.3368L5.42876 19.0449L6.60893 20.1218L5.87133 20.6529L7.56781 22.6444L15.2831 20.3873L20.7414 15.7699L6.54992 5.23697L4.69116 10.828Z" fill="#763D16" stroke="#763D16" stroke-linecap="round" stroke-linejoin="round"/>
<path d="M39.4175 22.6444L31.7022 20.3873L34.0477 23.9131L30.5515 30.699L35.1541 30.64H42.0138L39.4175 22.6444ZM15.2831 20.3873L7.56783 22.6444L5.00098 30.64H11.8459L16.4338 30.699L12.9523 23.9131L15.2831 20.3873ZM25.7571 24.2819L26.2439 15.7699L28.4862 9.70685H18.5286L20.7414 15.7699L21.2577 24.2819L21.4347 26.9667L21.4495 33.5756H25.5358L25.5653 26.9667L25.7571 24.2819Z" fill="#F6851B" stroke="#F6851B" stroke-linecap="round" stroke-linejoin="round"/>
</svg>
